<?xml version="1.0" standalone="yes"?>

<svg version="1.1" viewBox="0.0 0.0 193.70603674540683 193.70603674540683" fill="none" stroke="none" stroke-linecap="square" stroke-miterlimit="10" xmlns="http://www.w3.org/2000/svg" xmlns:xlink="http://www.w3.org/1999/xlink"><clipPath id="p.0"><path d="m0 0l193.70604 0l0 193.70604l-193.70604 0l0 -193.70604z" clip-rule="nonzero"></path></clipPath><g clip-path="url(#p.0)"><path fill="#000000" fill-opacity="0.0" d="m0 0l193.70604 0l0 193.70604l-193.70604 0z" fill-rule="evenodd"></path><path fill="#000000" fill-opacity="0.0" d="m1.9737533 37.076115l189.6693 0l0 119.46457l-189.6693 0z" fill-rule="evenodd"></path><path fill="#000000" d="m26.355276 75.93527l9.937502 0q4.03125 0 6.203125 0.640625q2.171875 0.625 3.25 1.828125q1.09375 1.1875 1.484375 2.890625q0.390625 1.703125 0.390625 5.265625l0 3.296875q0 3.640625 -0.75 5.3125q-0.75 1.65625 -2.765625 2.546875q-2.0 0.890625 -5.234375 0.890625l-2.640625 0l0 15.28125l-9.875002 0l0 -37.953125zm9.875002 6.5l0 9.65625q0.421875 0.015625 0.71875 0.015625q1.359375 0 1.890625 -0.65625q0.53125 -0.671875 0.53125 -2.78125l0 -3.125q0 -1.9375 -0.609375 -2.515625q-0.609375 -0.59375 -2.53125 -0.59375zm23.40625 0.34375l-0.375 4.078125q2.0625 -4.375 5.984375 -4.640625l0 10.953125q-2.609375 0 -3.828125 0.703125q-1.21875 0.703125 -1.5 1.953125q-0.28125 1.25 -0.28125 5.78125l0 12.28125l-9.46875 0l0 -31.109375l9.46875 0zm17.460938 -6.84375l0 4.953125l-9.75 0l0 -4.953125l9.75 0zm0 6.84375l0 31.109375l-9.75 0l0 -31.109375l9.75 0zm22.976562 0l-4.4375 31.109375l-12.34375 0l-4.765625 -31.109375l8.46875 0l2.640625 22.6875q0.3125 -2.484375 1.03125 -12.1875q0.421875 -5.40625 0.9375 -10.5l8.46875 0zm9.8671875 12.046875l-8.890625 0l0 -2.078125q0 -3.609375 0.828125 -5.5625q0.84375 -1.96875 3.34375 -3.46875q2.515625 -1.5 6.515625 -1.5q4.8125 0 7.25 1.703125q2.4375 1.703125 2.921875 4.171875q0.5 2.46875 0.5 10.1875l0 15.609375l-9.21875 0l0 -2.765625q-0.859375 1.65625 -2.234375 2.5q-1.375 0.828125 -3.265625 0.828125q-2.484375 0 -4.5625 -1.390625q-2.078125 -1.40625 -2.078125 -6.109375l0 -2.5625q0 -3.484375 1.09375 -4.75q1.109375 -1.265625 5.46875 -2.953125q4.671875 -1.828125 5.0 -2.453125q0.328125 -0.640625 0.328125 -2.59375q0 -2.4375 -0.375 -3.171875q-0.359375 -0.734375 -1.203125 -0.734375q-0.953125 0 -1.1875 0.625q-0.234375 0.609375 -0.234375 3.21875l0 3.25zm3.0 4.265625q-2.28125 1.671875 -2.640625 2.796875q-0.359375 1.125 -0.359375 3.234375q0 2.40625 0.3125 3.109375q0.3125 0.703125 1.25 0.703125q0.890625 0 1.15625 -0.546875q0.28125 -0.546875 0.28125 -2.890625l0 -6.40625zm33.656258 -4.5625l-8.9375 0l0 -3.59375q0 -1.875 -0.3125 -2.53125q-0.296875 -0.671875 -1.109375 -0.671875q-0.828125 0 -1.109375 0.59375q-0.28125 0.578125 -0.28125 2.609375l0 14.671875q0 1.671875 0.421875 2.5q0.421875 0.828125 1.25 0.828125q0.953125 0 1.296875 -0.859375q0.34375 -0.875 0.34375 -3.28125l0 -3.703125l8.4375 0q-0.03125 3.71875 -0.28125 5.59375q-0.234375 1.859375 -1.5625 3.8125q-1.328125 1.953125 -3.46875 2.953125q-2.125 1.0 -5.265625 1.0q-4.0 0 -6.3437653 -1.375q-2.3437424 -1.375 -3.3281174 -3.84375q-0.96875 -2.46875 -0.96875 -7.015625l0 -8.84375q0 -3.953125 0.796875 -5.96875q0.796875 -2.015625 3.3906174 -3.59375q2.6093903 -1.59375 6.3437653 -1.59375q3.703125 0 6.328125 1.578125q2.625 1.5625 3.484375 3.953125q0.875 2.390625 0.875 6.78125zm22.632812 -11.75l-2.71875 22.5q-0.625 5.34375 -1.0625 7.296875q-0.4375 1.953125 -1.453125 3.21875q-1.0 1.265625 -2.796875 1.859375q-1.78125 0.59375 -5.71875 0.59375l-5.75 0l0 -4.96875q2.203125 0 2.828125 -0.21875q0.640625 -0.234375 0.640625 -1.0q0 -0.375 -0.578125 -3.265625l-5.1875 -26.015625l8.609375 0l3.09375 20.984375l1.5 -20.984375l8.59375 0z" fill-rule="nonzero"></path><defs><linearGradient id="p.1" gradientUnits="userSpaceOnUse" gradientTransform="matrix(13.77207244924512 0.0 0.0 13.77207244924512 0.0 0.0)" spreadMethod="pad" x1="0.14322882310954685" y1="0.14333861790967006" x2="0.14317896819765702" y2="13.915411067064555"><stop offset="0.0" stop-color="#db0000"></stop><stop offset="1.0" stop-color="#540303"></stop></linearGradient></defs><path fill="url(#p.1)" d="m1.9725578 96.8094l0 0c0 -52.37573 42.45892 -94.83465 94.83465 -94.83465l0 0c25.15171 0 49.27327 9.991479 67.05821 27.776424c17.784958 17.784945 27.776428 41.90651 27.776428 67.05822l0 0c0 52.375732 -42.458908 94.83464 -94.83464 94.83464l0 0c-52.37573 0 -94.83465 -42.458908 -94.83465 -94.83464zm154.14339 45.045303l0 0c22.520462 -29.65149 19.68193 -71.378944 -6.646591 -97.707466c-26.328522 -26.328524 -68.05597 -29.167046 -97.70746 -6.6465797zm-118.61749 -90.09061l0 0c-22.520466 29.651493 -19.681942 71.37895 6.6465836 97.70746c26.328522 26.328537 68.05598 29.167053 97.707466 6.646591z" fill-rule="evenodd"></path><path stroke="#980000" stroke-width="2.0" stroke-linejoin="round" stroke-linecap="butt" d="m1.9725578 96.8094l0 0c0 -52.37573 42.45892 -94.83465 94.83465 -94.83465l0 0c25.15171 0 49.27327 9.991479 67.05821 27.776424c17.784958 17.784945 27.776428 41.90651 27.776428 67.05822l0 0c0 52.375732 -42.458908 94.83464 -94.83464 94.83464l0 0c-52.37573 0 -94.83465 -42.458908 -94.83465 -94.83464zm154.14339 45.045303l0 0c22.520462 -29.65149 19.68193 -71.378944 -6.646591 -97.707466c-26.328522 -26.328524 -68.05597 -29.167046 -97.70746 -6.6465797zm-118.61749 -90.09061l0 0c-22.520466 29.651493 -19.681942 71.37895 6.6465836 97.70746c26.328522 26.328537 68.05598 29.167053 97.707466 6.646591z" fill-rule="evenodd"></path></g></svg>

